<?xml version="1.0" encoding="utf-8"?>
<!-- Generator: Adobe Illustrator 26.5.0, SVG Export Plug-In . SVG Version: 6.00 Build 0)  -->
<svg version="1.1" id="Calque_1" xmlns="http://www.w3.org/2000/svg" xmlns:xlink="http://www.w3.org/1999/xlink" x="0px" y="0px"
	 viewBox="0 0 128 128" style="enable-background:new 0 0 128 128;" xml:space="preserve">
<path d="M124,64c0,3.3-0.3,6.7-0.8,10c-0.6,4-3.7,7.1-7.7,8l-9.8,2.1c-1,2.1-2.2,4.1-3.5,6l3.1,9.5c1.2,3.9,0.1,8.1-3,10.6
	c-2.3,1.9-4.8,3.7-7.3,5.2l-1.8,1c-2.7,1.5-5.4,2.8-8.1,3.8c-3.8,1.4-8,0.3-10.7-2.7l-6.7-7.4c-1.2,0.1-2.3,0.1-3.5,0.1
	c-1.1,0-2.3,0-3.5-0.1l-6.8,7.4c-2.7,3-6.9,4.1-10.7,2.7c-2.7-1-5.4-2.3-8.1-3.7l-1.8-1.1c-2.6-1.6-5.1-3.3-7.4-5.2
	c-3.1-2.5-4.3-6.7-3-10.6l3-9.6c-1.3-1.9-2.5-3.9-3.5-6l-9.8-2.1c-4-0.9-7-4-7.7-8c-1.1-6.3-1.1-13.3,0-19.9c0.6-4,3.7-7.1,7.7-8
	l9.8-2.1c1-2.1,2.2-4.1,3.5-6l-3-9.6c-1.2-3.9,0-8.1,3-10.6c2.3-1.9,4.8-3.7,7.3-5.2l1.8-1c2.7-1.5,5.4-2.8,8.1-3.8
	c0.2-0.1,0.5-0.2,0.7-0.2c3.6-1,7.5,0.1,10,3l6.7,7.4c1.2-0.1,2.3-0.1,3.5-0.1c1.1,0,2.3,0,3.5,0.1l6.8-7.4c2.7-3,6.9-4.1,10.7-2.7
	c2.7,1,5.4,2.3,8.1,3.7l1.8,1.1c2.6,1.6,5.1,3.3,7.4,5.2c3.1,2.5,4.3,6.7,3,10.6l-3,9.6c1.3,1.9,2.5,3.9,3.5,6l9.8,2.1
	c4,0.9,7,4,7.7,8C123.7,57.3,124,60.7,124,64z M113.3,72.2c0.9-5.4,0.9-11,0-16.3l-12.3-2.7c-1.6-0.4-2.9-1.5-3.6-3
	c-1.2-3-2.8-5.7-4.8-8.3c-1-1.3-1.3-3-0.8-4.6l3.8-12c-1.9-1.6-3.9-3-6-4.2l-1.7-1c-2.1-1.1-4.2-2.2-6.4-3l-8.5,9.3
	c-1.1,1.2-2.7,1.8-4.4,1.6c-1.6-0.2-3.2-0.3-4.8-0.3c-1.6,0-3.2,0.1-4.8,0.3c-1.6,0.2-3.3-0.4-4.4-1.6l-8.5-9.3
	c-0.1,0-0.2,0.1-0.3,0.1c-2.1,0.8-4.2,1.8-6.2,2.9l-1.7,1c-2,1.2-4,2.6-5.9,4.2l3.8,12c0.5,1.6,0.2,3.3-0.8,4.6
	c-2,2.6-3.6,5.4-4.8,8.3c-0.6,1.5-2,2.6-3.6,3l-12.3,2.7c-0.9,5.4-0.9,11.1,0,16.3l12.3,2.7c1.6,0.4,2.9,1.5,3.6,3
	c1.2,3,2.8,5.7,4.8,8.3c1,1.3,1.3,3,0.8,4.6l-3.8,12c1.9,1.6,3.9,3,6,4.2l1.7,1c2.1,1.1,4.2,2.2,6.4,3l8.5-9.3
	c1.1-1.2,2.7-1.8,4.4-1.6c1.6,0.2,3.2,0.3,4.8,0.3c1.6,0,3.2-0.1,4.8-0.3c1.6-0.2,3.2,0.4,4.3,1.6l8.5,9.3c2.2-0.8,4.4-1.8,6.5-3
	l1.7-1c2-1.2,4-2.6,5.9-4.2l-3.8-11.9c-0.5-1.6-0.2-3.3,0.8-4.6c2-2.6,3.6-5.4,4.8-8.3c0.6-1.5,2-2.6,3.6-3L113.3,72.2z M113.3,72.3
	C113.3,72.3,113.3,72.3,113.3,72.3C113.3,72.3,113.3,72.3,113.3,72.3z M95.9,25.5C95.9,25.5,95.9,25.5,95.9,25.5
	C95.9,25.5,95.9,25.5,95.9,25.5z M32.1,102.5C32.1,102.5,32.2,102.5,32.1,102.5C32.2,102.5,32.1,102.5,32.1,102.5z M14.7,72.3
	C14.7,72.3,14.7,72.3,14.7,72.3C14.7,72.3,14.7,72.3,14.7,72.3z M14.7,55.7C14.7,55.7,14.7,55.7,14.7,55.7
	C14.7,55.7,14.7,55.7,14.7,55.7z M86.2,64c0,12.2-10,22.2-22.2,22.2c-12.2,0-22.2-10-22.2-22.2c0-12.2,10-22.2,22.2-22.2
	C76.2,41.8,86.2,51.8,86.2,64z M51.8,64c0,6.7,5.5,12.2,12.2,12.2c6.7,0,12.2-5.5,12.2-12.2c0-6.7-5.5-12.2-12.2-12.2
	C57.3,51.8,51.8,57.3,51.8,64z"/>
</svg>
